<svg viewBox="0 0 15 14" width="20" height="20" fill="none"
    xmlns="http://www.w3.org/2000/svg">
    <path d="M14.25 10.315V12.967C14.2501 13.1569 14.1781 13.3397 14.0487 13.4786C13.9192 13.6176 13.7419 13.7022 13.5525 13.7155C13.2247 13.738 12.957 13.75 12.75 13.75C6.12225 13.75 0.75 8.37775 0.75 1.75C0.75 1.543 0.76125 1.27525 0.7845 0.9475C0.797792 0.758083 0.882436 0.580758 1.02135 0.451307C1.16027 0.321855 1.34312 0.249914 1.533 0.25H4.185C4.27803 0.249906 4.36777 0.284394 4.4368 0.346765C4.50582 0.409136 4.5492 0.494937 4.5585 0.5875C4.57575 0.76 4.5915 0.89725 4.6065 1.0015C4.75555 2.04169 5.061 3.05337 5.5125 4.00225C5.58375 4.15225 5.53725 4.3315 5.40225 4.4275L3.78375 5.584C4.77334 7.88984 6.61091 9.72741 8.91675 10.717L10.0717 9.1015C10.119 9.0355 10.1878 8.98816 10.2664 8.96774C10.3449 8.94732 10.4281 8.95511 10.5015 8.98975C11.4503 9.4404 12.4617 9.74509 13.5015 9.8935C13.6058 9.9085 13.743 9.925 13.914 9.9415C14.0064 9.95098 14.092 9.99443 14.1543 10.0634C14.2165 10.1324 14.2509 10.2221 14.2507 10.315H14.25Z" fill="white" />
</svg>