<svg width="48" height="48" viewBox="0 0 48 48" fill="none" xmlns="http://www.w3.org/2000/svg">
<path d="M23.9882 25.7956C23.0128 25.1699 22.3419 24.2779 21.542 23.5226C20.3271 22.3754 19.1746 21.1622 17.9736 19.9998C17.6032 19.6413 17.6339 19.4144 17.9921 19.0583C22.7366 14.3415 27.4744 9.61773 32.1899 4.87185C32.7244 4.33384 33.0636 4.36236 33.5747 4.87655C38.2631 9.59337 42.9646 14.2973 47.6798 18.9875C48.1207 19.426 48.0954 19.6919 47.671 20.1148C41.1293 26.6344 34.6014 33.1679 28.0694 39.6972C26.8685 40.8976 25.6529 42.0835 24.4665 43.2979C24.1119 43.6608 23.8713 43.652 23.5162 43.2956C16.9069 36.6609 10.2887 30.0352 3.67065 23.4093C2.5616 22.299 1.45514 21.1856 0.32495 20.097C-0.10122 19.6866 -0.117007 19.4141 0.329834 18.9696C5.01367 14.3114 9.67448 9.62991 14.3408 4.95396C15.0742 4.21904 15.1269 4.20225 15.877 4.94869C17.5909 6.65428 19.2773 8.38779 21.0025 10.0818C21.4358 10.5073 21.4417 10.7932 21.0137 11.2181C18.5496 13.665 16.1099 16.1363 13.6522 18.5895C12.7701 19.4699 12.7468 19.5754 13.5973 20.4287C16.8453 23.6877 20.0989 26.9412 23.3491 30.1981C23.7066 30.5563 24.026 30.7945 24.5066 30.3111C27.9695 26.828 31.4494 23.3618 34.9221 19.8884C35.0105 19.8 35.0781 19.6908 35.1896 19.5473C34.6118 18.7386 33.8478 18.1246 33.1668 17.4358C32.8013 17.0662 32.562 17.4176 32.3367 17.6415C30.8955 19.0738 29.4631 20.5149 28.0266 21.9521C26.8993 23.0799 25.7739 24.2097 24.6386 25.3293C24.4606 25.5047 24.3205 25.7431 23.9882 25.7956Z" fill="#09090B"/>
</svg>
