<svg width="15" height="16" viewBox="0 0 15 16" fill="none" xmlns="http://www.w3.org/2000/svg">
    <path d="M0.798001 4.63249C1.42201 3.38992 2.37928 2.34537 3.56282 1.61559C4.74637 0.885805 6.10955 0.499547 7.5 0.499985C9.52125 0.499985 11.2193 1.24249 12.5175 2.45374L10.3673 4.60474C9.5895 3.86149 8.601 3.48274 7.5 3.48274C5.54625 3.48274 3.8925 4.80274 3.30375 6.57499C3.15375 7.02499 3.06825 7.50499 3.06825 7.99999C3.06825 8.49499 3.15375 8.97499 3.30375 9.42499C3.89325 11.198 5.54625 12.5172 7.5 12.5172C8.50875 12.5172 9.3675 12.251 10.0395 11.801C10.4291 11.5445 10.7626 11.2117 11.0199 10.8226C11.2772 10.4336 11.4529 9.99638 11.5365 9.53749H7.5V6.63649H14.5635C14.652 7.12699 14.7 7.63849 14.7 8.17024C14.7 10.4547 13.8825 12.3777 12.4635 13.6827C11.223 14.8287 9.525 15.5 7.5 15.5C6.51498 15.5004 5.53953 15.3067 4.62941 14.9299C3.71929 14.5531 2.89234 14.0007 2.19582 13.3042C1.4993 12.6076 0.946872 11.7807 0.570101 10.8706C0.19333 9.96046 -0.000393646 8.98501 6.00536e-07 7.99999C6.00536e-07 6.78949 0.289501 5.64499 0.798001 4.63249Z" fill="white" />
</svg>