<svg width="23" height="20" viewBox="0 0 23 20" fill="none" xmlns="http://www.w3.org/2000/svg">
                    <path d="M11.6152 19C16.8652 15.4525 22.1152 11.5 22.1152 6.25003C22.1172 5.56004 21.9828 4.87646 21.7196 4.2386C21.4565 3.60075 21.0699 3.02121 20.582 2.53331C20.0941 2.0454 19.5145 1.65877 18.8767 1.39563C18.2388 1.1325 17.5552 0.998052 16.8652 1.00003C15.5152 1.00003 14.1802 1.51003 13.1527 2.53753L11.6152 4.07503L10.0777 2.53753C9.59123 2.04817 9.01278 1.65983 8.37565 1.39483C7.73852 1.12983 7.05528 0.993408 6.36524 0.993408C5.6752 0.993408 4.99196 1.12983 4.35483 1.39483C3.7177 1.65983 3.13925 2.04817 2.65274 2.53753C2.16458 3.02458 1.77745 3.60328 1.5136 4.24039C1.24975 4.87749 1.11437 5.56045 1.11524 6.25003C1.11524 11.5 6.36524 15.4525 11.6152 19Z" fill="black" stroke="white" strokeWidth="1.5" />
</svg>
