<svg  width="12" height="12" viewBox="0 0 12 12" fill="none"
    xmlns="http://www.w3.org/2000/svg">
    <path fillRule="evenodd" clipRule="evenodd" d="M5.6284 0.37272L4.06895 3.70272L0.345901 4.17897C0.273874 4.18791 0.205967 4.21728 0.150314 4.26356C0.0946606 4.30984 0.0536191 4.37108 0.0321041 4.43993C0.0105891 4.50878 0.00951262 4.58233 0.0290035 4.65177C0.0484944 4.72121 0.0877265 4.7836 0.142002 4.83147L2.89842 7.29522L2.15456 10.989C2.14055 11.0596 2.1473 11.1327 2.17401 11.1996C2.20071 11.2666 2.24625 11.3244 2.30517 11.3663C2.36409 11.4082 2.43392 11.4324 2.5063 11.436C2.57869 11.4396 2.65058 11.4224 2.7134 11.3865L5.96824 9.51147L9.22685 11.3865C9.28966 11.4224 9.36156 11.4396 9.43395 11.436C9.50633 11.4324 9.57616 11.4082 9.63508 11.3663C9.694 11.3244 9.73954 11.2666 9.76624 11.1996C9.79295 11.1327 9.7997 11.0596 9.78569 10.989L9.04183 7.29522L11.7982 4.83147C11.8514 4.78315 11.8896 4.72072 11.9082 4.65156C11.9268 4.58239 11.9251 4.50939 11.9032 4.44116C11.8814 4.37294 11.8403 4.31235 11.7849 4.26655C11.7295 4.22076 11.6621 4.19167 11.5906 4.18272L7.86752 3.70272L6.31184 0.37272C6.28181 0.30725 6.23344 0.251742 6.17252 0.212818C6.11159 0.173894 6.04068 0.153198 5.96824 0.153198C5.89579 0.153198 5.82488 0.173894 5.76395 0.212818C5.70303 0.251742 5.65466 0.30725 5.62463 0.37272H5.6284Z" fill="#222222" />
</svg>