<svg width="40" height="41" viewBox="0 0 40 41" fill="none"
    xmlns="http://www.w3.org/2000/svg">
    <path d="M20 40.5L20 20.5L40 20.5C28.971 20.5293 20.0356 29.471 20 40.5Z" fill="black"/>
    <path d="M20 0.5L20 20.5L2.62268e-06 20.5C11.029 20.4707 19.9644 11.529 20 0.5Z" fill="black"/>
    <path d="M20 40.5L20 33C20 26.0964 14.4036 20.5 7.5 20.5L8.74228e-07 20.5C11.029 20.5293 19.9644 29.471 20 40.5Z" fill="black"/>
    <path d="M20 0.5L20 8C20 14.9036 25.5964 20.5 32.5 20.5L40 20.5C28.971 20.4707 20.0356 11.529 20 0.5Z" fill="black"/>
</svg>
