<svg width="32" height="33" viewBox="0 0 32 33" fill="none" xmlns="http://www.w3.org/2000/svg">
<path d="M16.0002 1.20001C7.5602 1.20001 0.700195 8.06001 0.700195 16.5C0.700195 24.94 7.5602 31.8 16.0002 31.8C24.4402 31.8 31.3002 24.94 31.3002 16.5C31.3002 8.06001 24.4402 1.20001 16.0002 1.20001ZM16.0002 29.2C11.9802 29.2 8.4002 27.32 6.0702 24.39C7.69179 22.2686 9.95341 20.7258 12.5202 19.99C11.595 19.4035 10.833 18.5927 10.305 17.6329C9.77703 16.6731 9.50019 15.5955 9.5002 14.5C9.5002 12.7761 10.185 11.1228 11.404 9.90382C12.623 8.68483 14.2763 8.00001 16.0002 8.00001C17.7241 8.00001 19.3774 8.68483 20.5964 9.90382C21.8154 11.1228 22.5002 12.7761 22.5002 14.5C22.501 15.597 22.2245 16.6763 21.6966 17.6379C21.1686 18.5994 20.4062 19.4119 19.4802 20C22.0473 20.7352 24.3091 22.2781 25.9302 24.4C24.7438 25.8968 23.2345 27.106 21.5149 27.9372C19.7953 28.7684 17.9101 29.2001 16.0002 29.2Z" fill="#0A0D14"/>
</svg>
