<svg width="21" height="20" viewBox="0 0 21 20" fill="none" xmlns="http://www.w3.org/2000/svg">
<path d="M18.8641 0.934672L18.7971 0.796041L18.6603 0.86674L3.99099 8.44703V4.54894V4.39894H3.84099H2.67571H2.52571V4.54894V9.20416L1.18116 9.89864L1.05133 9.9657L1.11497 10.0972L1.63585 11.1738L1.7029 11.3124L1.8397 11.2418L2.52571 10.8875V17.7957H2.5256L2.52583 17.8016L2.52932 17.8913L2.52925 17.8913L2.52959 17.8961C2.57911 18.593 3.14348 19.15 3.84099 19.15H16.659V19.1501L16.6652 19.1499L16.7521 19.1463L16.7521 19.1463L16.7572 19.146C17.442 19.094 17.9743 18.5052 17.9743 17.7957V2.90492L19.3189 2.20985L19.4486 2.14277L19.385 2.01128L18.8641 0.934672ZM8.41008 10.4233L8.41007 10.4232L8.40378 10.4237C7.71915 10.4763 7.18681 11.0649 7.18681 11.7745V17.6457H3.99099V10.1305L16.509 3.66209V17.6457H13.3132V11.7745H13.3133L13.3131 11.7696L13.3102 11.6799L13.3103 11.6799L13.3099 11.674C13.2597 10.9772 12.6954 10.4202 11.9979 10.4202H8.50209V10.4201L8.49689 10.4203L8.41008 10.4233ZM8.65209 17.6457V11.9245H11.8479V17.6457H8.65209ZM15.6437 7.55958C15.6437 7.14905 15.3202 6.80745 14.9111 6.80745C14.502 6.80745 14.1785 7.14905 14.1785 7.55958C14.1785 7.9701 14.502 8.3117 14.9111 8.3117C15.3202 8.3117 15.6437 7.9701 15.6437 7.55958Z" fill="#868C98" stroke="#868C98" stroke-width="0.3"/>
</svg>
