<svg width="21" height="20" viewBox="0 0 21 20" fill="none" xmlns="http://www.w3.org/2000/svg">
<path d="M17.9329 14.1799L17.9329 14.1801L17.9409 14.1792C18.3285 14.1356 18.6333 13.8116 18.6333 13.4138V4.25345H19.45C19.6985 4.25345 19.9 4.05198 19.9 3.80345V3.16207C19.9 2.91354 19.6985 2.71207 19.45 2.71207H18.6333V1.3C18.6333 1.05147 18.4319 0.85 18.1833 0.85H17.5167C17.2681 0.85 17.0667 1.05147 17.0667 1.3V2.71207H1.05C0.801472 2.71207 0.6 2.91354 0.6 3.16207V3.80345C0.6 4.05198 0.801472 4.25345 1.05 4.25345H1.86667V13.4138H1.86639L1.86695 13.4229L1.87138 13.4956L1.87115 13.4956L1.87212 13.5038C1.91726 13.8896 2.25074 14.1845 2.65 14.1845H17.85V14.1847L17.8588 14.1842L17.9329 14.1799ZM8.26712 7.0615L8.26711 7.06129L8.25915 7.06218C7.87153 7.10575 7.56667 7.4298 7.56667 7.82759V12.6431H4.28333C3.81389 12.6431 3.43333 12.2625 3.43333 11.7931V4.25345H17.0667V11.7931C17.0667 12.2625 16.6861 12.6431 16.2167 12.6431H12.9333V7.82759H12.9336L12.9331 7.81845L12.9286 7.74583L12.9289 7.74581L12.9279 7.73753C12.8827 7.35175 12.5493 7.0569 12.15 7.0569H8.35V7.05664L8.34122 7.05715L8.26712 7.0615ZM12.9167 19.15C13.2757 19.15 13.5667 18.859 13.5667 18.5V18.2586C13.5667 17.8996 13.2757 17.6086 12.9167 17.6086H7.58333C7.22435 17.6086 6.93333 17.8996 6.93333 18.2586V18.5C6.93333 18.859 7.22435 19.15 7.58333 19.15H12.9167ZM11.65 16.6672C12.009 16.6672 12.3 16.3762 12.3 16.0172V15.7759C12.3 15.4169 12.009 15.1259 11.65 15.1259H8.85C8.49101 15.1259 8.2 15.4169 8.2 15.7759V16.0172C8.2 16.3762 8.49101 16.6672 8.85 16.6672H11.65ZM9.13333 12.6431V8.59828H11.3667V12.6431H9.13333ZM16.1 5.96552C16.1 5.53722 15.7462 5.19483 15.3167 5.19483C14.8871 5.19483 14.5333 5.53722 14.5333 5.96552C14.5333 6.39382 14.8871 6.73621 15.3167 6.73621C15.7462 6.73621 16.1 6.39382 16.1 5.96552Z" fill="#868C98" stroke="#868C98" stroke-width="0.3"/>
</svg>
