<svg width="18" height="19" viewBox="0 0 18 19" fill="none" xmlns="http://www.w3.org/2000/svg">
<path d="M5.91667 14.1667H12.5833M8.43141 2.30333L2.77949 6.69927C2.40168 6.99312 2.21278 7.14005 2.07669 7.32405C1.95614 7.48704 1.86633 7.67065 1.81169 7.86588C1.75 8.08627 1.75 8.32558 1.75 8.80421V14.8333C1.75 15.7667 1.75 16.2335 1.93166 16.59C2.09144 16.9036 2.34641 17.1585 2.66002 17.3183C3.01654 17.5 3.48325 17.5 4.41667 17.5H14.0833C15.0168 17.5 15.4835 17.5 15.84 17.3183C16.1536 17.1585 16.4086 16.9036 16.5683 16.59C16.75 16.2335 16.75 15.7667 16.75 14.8333V8.80421C16.75 8.32558 16.75 8.08627 16.6883 7.86588C16.6337 7.67065 16.5439 7.48704 16.4233 7.32405C16.2872 7.14005 16.0983 6.99312 15.7205 6.69927L10.0686 2.30333C9.77582 2.07562 9.62943 1.96177 9.46779 1.918C9.32516 1.87938 9.17484 1.87938 9.03221 1.918C8.87057 1.96177 8.72418 2.07562 8.43141 2.30333Z" stroke="#868c98" stroke-width="2" stroke-linecap="round" stroke-linejoin="round"/>
</svg>
