<svg width="21" height="20" viewBox="0 0 21 20" fill="none" xmlns="http://www.w3.org/2000/svg">
<g clip-path="url(#clip0_103_210)">
<path d="M11.5832 9.16667H15.5832C16.5166 9.16667 16.9833 9.16667 17.3398 9.34832C17.6534 9.50811 17.9084 9.76308 18.0682 10.0767C18.2498 10.4332 18.2498 10.8999 18.2498 11.8333V17.5M11.5832 17.5V5.16667C11.5832 4.23325 11.5832 3.76654 11.4015 3.41002C11.2417 3.09641 10.9868 2.84144 10.6732 2.68166C10.3166 2.5 9.84993 2.5 8.9165 2.5H5.9165C4.98308 2.5 4.51637 2.5 4.15985 2.68166C3.84625 2.84144 3.59128 3.09641 3.43149 3.41002C3.24984 3.76654 3.24984 4.23325 3.24984 5.16667V17.5M19.0832 17.5H2.4165M6.1665 5.83333H8.6665M6.1665 9.16667H8.6665M6.1665 12.5H8.6665" stroke="#868C98" stroke-width="2" stroke-linecap="round" stroke-linejoin="round"/>
</g>
<defs>
<clipPath id="clip0_103_210">
<rect width="20" height="20" fill="white" transform="translate(0.75)"/>
</clipPath>
</defs>
</svg>
