<svg width="20" height="20" viewBox="0 0 20 20" fill="none" xmlns="http://www.w3.org/2000/svg">
<path d="M6.66663 10C6.66663 9.77899 6.75442 9.56703 6.9107 9.41075C7.06698 9.25447 7.27895 9.16667 7.49996 9.16667H12.5C12.721 9.16667 12.9329 9.25447 13.0892 9.41075C13.2455 9.56703 13.3333 9.77899 13.3333 10V12.5C13.3333 12.721 13.2455 12.933 13.0892 13.0893C12.9329 13.2455 12.721 13.3333 12.5 13.3333H7.49996C7.27895 13.3333 7.06698 13.2455 6.9107 13.0893C6.75442 12.933 6.66663 12.721 6.66663 12.5V10Z" stroke="#09090B" stroke-width="1.66667" stroke-linecap="round" stroke-linejoin="round"/>
<path d="M8.33337 9.16666V7.49999C8.33337 7.05797 8.50897 6.63404 8.82153 6.32148C9.13409 6.00892 9.55801 5.83333 10 5.83333C10.4421 5.83333 10.866 6.00892 11.1786 6.32148C11.4911 6.63404 11.6667 7.05797 11.6667 7.49999V9.16666" stroke="#09090B" stroke-width="1.66667" stroke-linecap="round" stroke-linejoin="round"/>
<path d="M3.33337 4.99999C3.33337 4.55797 3.50897 4.13404 3.82153 3.82148C4.13409 3.50892 4.55801 3.33333 5.00004 3.33333H15C15.4421 3.33333 15.866 3.50892 16.1786 3.82148C16.4911 4.13404 16.6667 4.55797 16.6667 4.99999V15C16.6667 15.442 16.4911 15.8659 16.1786 16.1785C15.866 16.4911 15.4421 16.6667 15 16.6667H5.00004C4.55801 16.6667 4.13409 16.4911 3.82153 16.1785C3.50897 15.8659 3.33337 15.442 3.33337 15V4.99999Z" stroke="#09090B" stroke-width="1.66667" stroke-linecap="round" stroke-linejoin="round"/>
</svg>
