<svg width="20" height="20" viewBox="0 0 20 20" fill="none" xmlns="http://www.w3.org/2000/svg">
<path d="M6.66663 10.8333V10.8417" stroke="#09090B" stroke-width="1.66667" stroke-linecap="round" stroke-linejoin="round"/>
<path d="M10 14.1667V14.175" stroke="#09090B" stroke-width="1.66667" stroke-linecap="round" stroke-linejoin="round"/>
<path d="M10 10V10.0083" stroke="#09090B" stroke-width="1.66667" stroke-linecap="round" stroke-linejoin="round"/>
<path d="M15.16 15.1558C14.9273 15.3887 14.6509 15.5734 14.3467 15.6992C13.4734 15.9183 12.8575 16.1017 12.5 16.25C12.1042 16.4142 11.59 16.6983 10.9567 17.1033C10.3442 17.357 9.65592 17.357 9.04337 17.1033C8.37504 16.6842 7.86087 16.4 7.50004 16.25C7.10754 16.0875 6.4917 15.9042 5.65337 15.7C5.04092 15.4461 4.55442 14.9593 4.30087 14.3467C4.08004 13.47 3.8967 12.855 3.75004 12.5C3.58504 12.1008 3.30004 11.5867 2.8967 10.9567C2.64299 10.3441 2.64299 9.65588 2.8967 9.04333C3.2967 8.42333 3.58004 7.90917 3.75004 7.5C3.89254 7.15583 4.07587 6.54 4.30004 5.65333C4.42557 5.35078 4.60932 5.07585 4.84087 4.84417M7.1917 3.86583C7.30837 3.825 7.41087 3.78667 7.50004 3.75C7.8817 3.59167 8.39587 3.3075 9.04337 2.89667C9.65592 2.64295 10.3442 2.64295 10.9567 2.89667L13.1792 3.81667C12.7387 4.39618 12.5001 5.10395 12.4996 5.83187C12.4992 6.55978 12.7371 7.26782 13.1769 7.84783C13.6168 8.42784 14.2344 8.84794 14.9354 9.04395C15.6364 9.23996 16.3823 9.20111 17.0592 8.93333L17.1034 9.04333C17.3571 9.65588 17.3571 10.3441 17.1034 10.9567C16.6892 11.6117 16.405 12.1267 16.25 12.5C16.2096 12.5989 16.1721 12.6989 16.1375 12.8" stroke="#09090B" stroke-width="1.66667" stroke-linecap="round" stroke-linejoin="round"/>
<path d="M2.5 2.5L17.5 17.5" stroke="#09090B" stroke-width="1.66667" stroke-linecap="round" stroke-linejoin="round"/>
</svg>
