<svg width="20" height="20" viewBox="0 0 20 20" fill="none" xmlns="http://www.w3.org/2000/svg">
<path d="M15.8333 15C16.6068 15 17.3487 14.6927 17.8957 14.1457C18.4427 13.5987 18.75 12.8569 18.75 12.0833C18.75 11.3098 18.4427 10.5679 17.8957 10.0209C17.3487 9.47396 16.6068 9.16667 15.8333 9.16667H15C15.3308 7.69333 14.7625 6.1725 13.51 5.1775C12.2575 4.18333 10.51 3.865 8.92663 4.34417C7.3433 4.82333 6.16413 6.02667 5.8333 7.5C4.0008 7.42667 2.3708 8.605 1.94497 10.3108C1.5183 12.0167 2.41497 13.7725 4.0833 14.5" stroke="#09090B" stroke-width="1.66667" stroke-linecap="round" stroke-linejoin="round"/>
<path d="M6.66663 13.3333C6.66663 13.1123 6.75442 12.9004 6.9107 12.7441C7.06698 12.5878 7.27895 12.5 7.49996 12.5H12.5C12.721 12.5 12.9329 12.5878 13.0892 12.7441C13.2455 12.9004 13.3333 13.1123 13.3333 13.3333V15.8333C13.3333 16.0543 13.2455 16.2663 13.0892 16.4226C12.9329 16.5789 12.721 16.6667 12.5 16.6667H7.49996C7.27895 16.6667 7.06698 16.5789 6.9107 16.4226C6.75442 16.2663 6.66663 16.0543 6.66663 15.8333V13.3333Z" stroke="#09090B" stroke-width="1.66667" stroke-linecap="round" stroke-linejoin="round"/>
<path d="M8.33337 12.5V10.8333C8.33337 10.3913 8.50897 9.96738 8.82153 9.65482C9.13409 9.34226 9.55801 9.16666 10 9.16666C10.4421 9.16666 10.866 9.34226 11.1786 9.65482C11.4911 9.96738 11.6667 10.3913 11.6667 10.8333V12.5" stroke="#09090B" stroke-width="1.66667" stroke-linecap="round" stroke-linejoin="round"/>
</svg>
