<svg width="20" height="20" viewBox="0 0 20 20" fill="none" xmlns="http://www.w3.org/2000/svg">
<path d="M8.82085 8.8225C8.50833 9.13512 8.33281 9.55909 8.33289 10.0011C8.33296 10.4432 8.50864 10.8671 8.82126 11.1796C9.13389 11.4921 9.55785 11.6676 9.99989 11.6675C10.4419 11.6675 10.8658 11.4918 11.1783 11.1792" stroke="#09090B" stroke-width="1.66667" stroke-linecap="round" stroke-linejoin="round"/>
<path d="M13.9008 13.8942C12.7319 14.6255 11.3789 15.0091 10 15C7 15 4.5 13.3333 2.5 10C3.56 8.23333 4.76 6.935 6.1 6.105M8.48333 5.15C8.98253 5.04894 9.49068 4.99869 10 5C13 5 15.5 6.66667 17.5 10C16.945 10.925 16.3508 11.7225 15.7183 12.3917" stroke="#09090B" stroke-width="1.66667" stroke-linecap="round" stroke-linejoin="round"/>
<path d="M2.5 2.5L17.5 17.5" stroke="#09090B" stroke-width="1.66667" stroke-linecap="round" stroke-linejoin="round"/>
</svg>
