     <svg className="w-5 h-5" viewBox="0 0 20 20" fill="none" xmlns="http://www.w3.org/2000/svg">
                        <path d="M2.5 10C2.5 10.9849 2.69399 11.9602 3.0709 12.8701C3.44781 13.7801 4.00026 14.6069 4.6967 15.3033C5.39314 15.9997 6.21993 16.5522 7.12987 16.9291C8.03982 17.306 9.01509 17.5 10 17.5C10.9849 17.5 11.9602 17.306 12.8701 16.9291C13.7801 16.5522 14.6069 15.9997 15.3033 15.3033C15.9997 14.6069 16.5522 13.7801 16.9291 12.8701C17.306 11.9602 17.5 10.9849 17.5 10C17.5 9.01509 17.306 8.03982 16.9291 7.12987C16.5522 6.21993 15.9997 5.39314 15.3033 4.6967C14.6069 4.00026 13.7801 3.44781 12.8701 3.0709C11.9602 2.69399 10.9849 2.5 10 2.5C9.01509 2.5 8.03982 2.69399 7.12987 3.0709C6.21993 3.44781 5.39314 4.00026 4.6967 4.6967C4.00026 5.39314 3.44781 6.21993 3.0709 7.12987C2.69399 8.03982 2.5 9.01509 2.5 10Z" stroke="#09090B" stroke-width="1.66667" stroke-linecap="round" stroke-linejoin="round" />
                        <path d="M11.5559 8.125C11.3509 7.725 10.9659 7.48417 10.5559 7.5H9.44421C8.83087 7.5 8.33337 8.05834 8.33337 8.75C8.33337 9.43917 8.83087 9.99917 9.44421 9.99917H10.5559C11.1692 9.99917 11.6667 10.5583 11.6667 11.2492C11.6667 11.9392 11.1692 12.4983 10.5559 12.4983H9.44421C9.03421 12.5142 8.64921 12.2733 8.44421 11.8733" stroke="#09090B" stroke-width="1.66667" stroke-linecap="round" stroke-linejoin="round" />
                        <path d="M10 5.83333V7.49999" stroke="#09090B" stroke-width="1.66667" stroke-linecap="round" stroke-linejoin="round" />
                        <path d="M10 12.5V14.1667" stroke="#09090B" stroke-width="1.66667" stroke-linecap="round" stroke-linejoin="round" />
                        <path d="M5 5L6.25 6.25" stroke="#09090B" stroke-width="1.66667" stroke-linecap="round" stroke-linejoin="round" />
                        <path d="M13.75 13.75L15 15" stroke="#09090B" stroke-width="1.66667" stroke-linecap="round" stroke-linejoin="round" />
                    </svg>